<?xml version="1.0" encoding="UTF-8"?>
<svg width="1000px" height="1000px" viewBox="0 0 1000 1000" version="1.1" xmlns="http://www.w3.org/2000/svg" xmlns:xlink="http://www.w3.org/1999/xlink">
    <!-- Generator: Sketch 43.1 (39012) - http://www.bohemiancoding.com/sketch -->
    <title>Slice</title>
    <desc>Created with Sketch.</desc>
    <defs></defs>
    <g id="Page-1" stroke="none" stroke-width="1" fill="none" fill-rule="evenodd">
        <g id="trucking" transform="translate(571.000000, 656.000000)" fill-rule="nonzero">
            <path d="M361.573848,173.021979 C361.581016,176.217529 359.019184,178.806329 355.848074,178.813552 L328.273615,178.856891 C322.296963,168.502414 311.153639,161.547181 298.410424,161.568851 C285.660041,161.59052 274.538221,168.597038 268.604576,178.986909 L246.784562,179.023025 L246.662707,115.394455 L360.735195,115.177759 C361.223334,117.043515 361.474213,118.980781 361.481381,120.962109 L361.510053,138.315158 L350.029834,138.336828 C346.873061,138.344051 344.296893,140.947297 344.304061,144.1284 L344.311229,149.91275 C344.318396,153.093854 346.9089,155.6971 350.065674,155.689877 L361.545893,155.668207 L361.573848,173.021979 Z" id="Shape" fill="#FA9F78"></path>
            <path d="M361.509336,138.315158 L361.545176,155.668207 L350.064957,155.689877 C346.908184,155.6971 344.31768,153.093854 344.310512,149.91275 L344.303344,144.1284 C344.296176,140.947297 346.872344,138.344051 350.029117,138.336828 L361.509336,138.315158 Z" id="Shape" fill="#B4E1FA"></path>
            <path d="M360.734479,115.177036 L246.66199,115.393733 L246.618982,92.2556115 L326.981947,92.103924 L348.744617,100.288548 C354.77933,103.312185 359.09158,108.792438 360.734479,115.177036 Z" id="Shape" fill="#DF7E54"></path>
            <path d="M328.273615,178.856891 C331.21535,183.961536 332.901973,189.88385 332.916309,196.20994 C332.952148,215.378183 317.561086,230.945654 298.539447,230.98177 C279.517809,231.017886 264.069402,215.508201 264.033562,196.339958 C264.019227,190.020368 265.683629,184.091554 268.603859,178.986909 C274.537504,168.596316 285.659324,161.59052 298.409707,161.568851 C311.153639,161.547181 322.296963,168.502414 328.273615,178.856891 Z" id="Shape" fill="#464655"></path>
            <path d="M314.583512,44.9905107 L326.982664,92.1046463 L246.619699,92.2563338 L246.505012,28.627764 L292.562795,28.5410855 C302.70117,28.5194158 311.648945,35.2073897 314.583512,44.9905107 Z" id="Shape" fill="#FFFFFF"></path>
            <path d="M5.61682031,138.987639 L5.38027734,11.7297772 C5.37310937,8.53422734 7.94210937,5.93820423 11.1132187,5.93820423 L240.721178,5.49686585 C243.885119,5.49686585 246.461287,8.07844253 246.468455,11.2739924 L246.504295,28.6270417 L246.618982,92.2556115 L246.66199,115.393733 L246.783846,179.022303 L172.175326,179.152321 L98.6577715,179.289562 C92.6811191,168.935084 81.5449629,161.987075 68.801748,162.008744 C56.0513652,162.030414 44.9295449,169.036932 38.9887324,179.426803 L11.4357773,179.470142 C8.26466797,179.470142 5.6885,176.888565 5.68133203,173.693015 L5.61682031,138.987639 Z" id="Shape" fill="#F3B972"></path>
            <path d="M183.684934,202.276718 C183.692102,208.639647 178.540482,213.859864 172.226219,213.867087 L137.784846,213.932096 C131.470582,213.946542 126.290291,208.747995 126.283123,202.385066 L126.268787,196.600716 L126.261619,190.816366 C126.247283,184.453437 131.40607,179.240444 137.720334,179.225997 L172.161707,179.160988 L172.176043,179.160988 C178.483139,179.160988 183.649094,184.352312 183.66343,190.708018 L183.670598,196.492368 L183.684934,202.276718 Z" id="Shape" fill="#90A7C1"></path>
            <path d="M98.6584883,179.291006 C101.607391,184.388428 103.294014,190.317965 103.30835,196.644056 C103.344189,215.812299 87.953127,231.386993 68.9314883,231.415885 C49.9098496,231.452001 34.4614434,215.942316 34.4256035,196.781297 C34.4112676,190.461707 36.0756699,184.540116 38.9887324,179.428247 C44.9295449,169.037654 56.0513652,162.031859 68.801748,162.010189 C81.5456797,161.987797 92.6811191,168.936529 98.6584883,179.291006 Z" id="Shape" fill="#464655"></path>
            <g id="Group" transform="translate(55.193359, 183.469636)" fill="#C7CFE2">
                <ellipse id="Oval" cx="243.189826" cy="13.1527504" rx="12.1977324" ry="12.2917433"></ellipse>
                <ellipse id="Oval" cx="13.5811504" cy="13.1527504" rx="12.9152461" ry="13.014787"></ellipse>
            </g>
            <path d="M80.3493457,191.267817 L80.3385938,191.267817 C77.3667539,191.273596 74.9611836,193.705652 74.966918,196.701119 C74.9697852,198.342955 74.3382871,199.887279 73.1878281,201.050938 C72.0380859,202.213876 70.5077246,202.856742 68.8784453,202.859631 L68.8669766,202.859631 C65.5095,202.859631 62.7742031,200.109754 62.767752,196.725678 C62.7613008,193.335824 65.4922969,190.573666 68.8555078,190.567166 C71.8273477,190.561387 74.232918,188.129331 74.2271836,185.133864 C74.2214492,182.142009 71.8137285,179.720787 68.8454727,179.720787 L68.8347207,179.720787 C59.5371484,179.738123 51.987127,187.375227 52.0043301,196.744458 C52.0215332,206.103577 59.5823066,213.705287 68.865543,213.704565 L68.8977988,213.704565 C73.4014336,213.695897 77.6326855,211.919708 80.8116797,208.705378 C83.9906738,205.489603 85.7360742,201.218517 85.7281895,196.680894 C85.7246055,193.689039 83.3168848,191.267817 80.3493457,191.267817 Z" id="Shape" fill="#000000"></path>
            <path d="M309.957305,190.83298 L309.946553,190.83298 C306.974713,190.838758 304.569143,193.270815 304.574877,196.266281 C304.577744,197.908118 303.946246,199.452441 302.795787,200.616101 C301.646045,201.779038 300.115684,202.421904 298.486404,202.424794 L298.474936,202.424794 C295.117459,202.424794 292.382162,199.674916 292.375711,196.29084 C292.36926,192.900986 295.100256,190.138829 298.463467,190.132328 C301.435307,190.12655 303.840877,187.694493 303.835143,184.699027 C303.829408,181.707171 301.421688,179.28595 298.453432,179.28595 L298.44268,179.28595 C289.145107,179.303286 281.595086,186.94039 281.612289,196.309621 C281.629492,205.668739 289.190266,213.27045 298.473502,213.269727 L298.505758,213.269727 C303.009393,213.261059 307.240645,211.484871 310.419639,208.270541 C313.597916,205.054766 315.344033,200.783679 315.336148,196.246056 C315.333281,193.254201 312.924127,190.83298 309.957305,190.83298 Z" id="Shape" fill="#000000"></path>
            <path d="M361.618289,190.736189 L361.607537,190.736189 L337.913816,190.780973 C337.609178,188.551167 337.131074,186.374812 336.475922,184.276469 L355.853809,184.23963 C358.824932,184.233852 361.615422,183.062969 363.71277,180.941511 C365.8094,178.820775 366.961293,176.004444 366.955559,173.011144 L366.923303,155.659539 L366.923303,155.657372 L366.923303,155.655205 L366.858791,120.950551 C366.855924,119.577418 366.757006,118.222343 366.568488,116.891827 C366.747688,116.348642 366.848756,115.76934 366.848039,115.166924 C366.845172,113.62549 366.201488,112.239355 365.175752,111.253387 C362.750111,104.471511 357.817115,98.7803407 351.144453,95.434548 C350.976723,95.3507587 350.804691,95.2749149 350.628359,95.2091837 L331.470529,88.0033054 L319.783873,43.597875 C319.768104,43.5386447 319.751617,43.4794143 319.733697,43.420184 C316.091652,31.2700157 305.194189,23.1178964 292.605803,23.1178964 L292.548459,23.1178964 L251.870953,23.1944625 L251.848732,11.2638799 C251.842998,8.26985771 250.68107,5.4578605 248.575838,3.3450704 C246.47634,1.23733656 243.69015,0.0772883898 240.728346,0.0772883898 L240.705408,0.0772883898 L11.098166,0.511403551 C4.96811914,0.523683015 -0.01146875,5.56115246 5.23990709e-14,11.740612 L0.237259766,138.995585 L0.237259766,138.997752 L0.237259766,138.999919 L0.301771484,173.704573 C0.307505859,176.698595 1.46943359,179.510592 3.57466602,181.623382 C5.67416406,183.731116 8.46035352,184.891886 11.4221582,184.891886 L11.4450957,184.891886 L30.8100801,184.855048 C30.1635293,186.970005 29.6954609,189.146359 29.4037246,191.365331 L5.71573828,191.409392 C2.74389844,191.415171 0.338328125,193.847227 0.3440625,196.842694 C0.349796875,199.834549 2.75751758,202.25577 5.72577344,202.25577 L5.73652539,202.25577 L29.4302461,202.210987 C32.1024648,221.74039 48.7765938,236.843408 68.8669766,236.843408 L68.942957,236.843408 C79.5795059,236.823183 89.5716543,232.630108 97.0793848,225.036343 C103.305482,218.738423 107.194105,210.726434 108.333096,202.062188 L120.898545,202.038352 L120.899262,202.400235 C120.916465,211.751408 128.480822,219.359619 137.761191,219.359619 L137.79273,219.359619 L172.234104,219.29461 C176.724836,219.285942 180.952504,217.506865 184.137949,214.285311 C187.323395,211.063035 189.072379,206.796283 189.063777,202.270217 L189.063061,201.908334 L259.036771,201.775427 C261.70899,221.30483 278.382402,236.407849 298.473502,236.407849 L298.549482,236.407849 C318.682156,236.369566 335.333348,221.202983 337.933887,201.626629 L361.626891,201.581845 C364.59873,201.576066 367.004301,199.14401 366.998566,196.148543 C366.994266,193.156688 364.586545,190.736189 361.618289,190.736189 Z M356.089635,173.287071 C355.984982,173.39253 355.873162,173.39253 355.835889,173.39253 L332.874734,173.436591 C332.343588,173.437314 331.831795,173.518936 331.34724,173.664123 C324.164219,163.098005 312.106262,156.147829 298.477086,156.147829 L298.401105,156.147829 C287.76384,156.168054 277.771691,160.361129 270.263961,167.954894 C268.47627,169.763587 266.886414,171.716022 265.492961,173.781861 C265.019158,173.64462 264.520984,173.566609 264.00274,173.566609 L263.991988,173.566609 L252.152654,173.589001 L252.054453,120.806087 L356.082467,120.609616 C356.085334,120.730243 356.095369,120.849426 356.095369,120.970776 L356.11759,132.901359 L350.019082,132.912916 C347.05441,132.918695 344.265354,134.091022 342.165855,136.214647 C340.065641,138.338994 338.912314,141.153881 338.918049,144.141402 L338.928801,149.92503 C338.94027,156.098711 343.927025,161.112344 350.051338,161.112344 L350.071408,161.112344 L356.170633,161.100786 L356.192854,173.031369 C356.194287,173.068207 356.194287,173.18089 356.089635,173.287071 Z M356.151996,150.255131 L350.053488,150.266688 C350.053488,150.266688 350.053488,150.266688 350.052771,150.266688 C349.868555,150.266688 349.693656,150.091886 349.692939,149.904805 L349.682188,144.121177 C349.682188,144.027998 349.718744,143.943486 349.791141,143.869809 C349.864254,143.796133 349.947402,143.759294 350.039869,143.759294 L356.139094,143.747737 L356.151996,150.255131 Z M352.127898,109.771183 L252.0351,109.960431 L252.012162,97.6686881 L326.017139,97.5285577 L346.584908,105.26462 C348.764688,106.39722 350.635527,107.939376 352.127898,109.771183 Z M292.571396,33.9628299 L292.60652,33.9628299 C300.385916,33.9628299 307.124523,38.9822413 309.408238,46.4727142 L319.993178,86.694459 L251.993525,86.8230322 L251.895324,34.0401183 L292.571396,33.9628299 Z M34.3969316,174.001447 L34.3861797,174.001447 L11.4235918,174.045508 C11.4028047,174.037563 11.2759316,174.046231 11.1705625,173.940049 C11.0659102,173.83459 11.0651934,173.721186 11.0651934,173.684348 L11.0107168,144.400716 L189.31824,144.064114 C192.29008,144.058335 194.69565,141.626279 194.689916,138.630812 C194.684182,135.638957 192.276461,133.217736 189.308205,133.217736 L189.297453,133.217736 L10.9899297,133.554338 L10.7634219,11.720387 C10.7634219,11.5210263 10.9239844,11.3577817 11.1218203,11.3570594 L240.729779,10.9222219 C240.762035,10.9251112 240.878156,10.9222219 240.982809,11.0276808 C241.087461,11.1331397 241.088178,11.2458219 241.088178,11.2826603 L241.120434,28.6335426 L241.120434,28.6357096 L241.120434,28.6378765 L241.238705,92.263557 L241.238705,92.263557 L241.238705,92.263557 L241.281713,115.400234 L241.281713,115.401678 L241.281713,115.403123 L241.389949,173.607781 L171.080777,173.741411 L137.707432,173.804253 L137.693096,173.804253 L103.267492,173.869262 C102.735629,173.869984 102.223836,173.951606 101.738564,174.097515 C94.555543,163.531398 82.4975859,156.580499 68.8684102,156.580499 L68.7924297,156.580499 C58.1551641,156.600724 48.1630156,160.7938 40.6552852,168.387565 C38.8675938,170.196257 37.2784551,172.148692 35.885002,174.214531 C35.4126328,174.078735 34.9137422,174.001447 34.3969316,174.001447 Z M89.4555332,217.380458 C83.9770547,222.922108 76.6857969,225.981861 68.9236035,225.996308 L68.8676934,231.419497 L68.8676934,225.996308 C52.8745215,225.996308 39.8395703,212.88473 39.8094648,196.767572 C39.7944121,188.945554 42.8035254,181.586544 48.2820039,176.044894 C53.7604824,170.503244 61.052457,167.443491 68.8705605,167.429044 C84.8637324,167.429044 97.8986836,180.540622 97.9287891,196.65778 C97.943125,204.479798 94.9347285,211.838808 89.4555332,217.380458 Z M108.306574,191.215088 C108.001936,188.985282 107.523832,186.808927 106.86868,184.710584 L122.010297,184.681691 C121.265545,186.618957 120.873457,188.694909 120.877758,190.829368 L120.878475,191.190529 L108.306574,191.215088 Z M172.21475,208.448232 L137.773377,208.513241 L137.761908,213.93643 L137.761908,208.513241 C134.405148,208.513241 131.669135,205.761196 131.662684,202.379287 L131.651932,196.611551 C131.651932,196.611551 131.652648,196.599994 131.652648,196.594215 C131.652648,196.588437 131.651932,196.582658 131.651932,196.582658 L131.64118,190.809866 C131.638313,189.181753 132.273395,187.640319 133.429588,186.470881 C134.583631,185.30361 136.107541,184.657854 137.720334,184.652798 L172.183928,184.587789 C175.539971,184.589234 178.274551,187.339834 178.280285,190.722465 L178.301789,202.291164 C178.30824,205.679574 175.577961,208.441731 172.21475,208.448232 Z M189.04299,190.701517 C189.038689,188.535275 188.625098,186.46438 187.883213,184.557452 L246.79173,184.446214 L260.415889,184.42021 C259.769338,186.535168 259.30127,188.711522 259.01025,190.929771 L189.042273,191.062678 L189.042273,190.701517 L189.04299,190.701517 Z M298.530846,225.562193 L298.474936,230.985382 L298.474936,225.562193 C282.481764,225.562193 269.446813,212.450615 269.416707,196.333457 C269.401654,188.511439 272.410768,181.152428 277.889246,175.610779 C283.367725,170.069129 290.659699,167.009375 298.477803,166.994929 C314.470975,166.994929 327.505926,180.106507 327.536031,196.223664 C327.566137,212.369715 314.55484,225.531855 298.530846,225.562193 Z" id="Shape" fill="#000000"></path>
            <path d="M143.489115,191.148634 C142.075592,191.148634 140.69074,191.727214 139.686508,192.739186 C138.682275,193.743935 138.108121,195.146683 138.108121,196.571101 C138.108121,197.995519 138.682275,199.398267 139.686508,200.403016 C140.69074,201.414988 142.075592,201.993568 143.489115,201.993568 C144.909807,201.993568 146.294658,201.414988 147.298891,200.403016 C148.295955,199.398267 148.870109,197.995519 148.870109,196.571101 C148.870109,195.146683 148.295955,193.743935 147.298891,192.739186 C146.294658,191.727214 144.909807,191.148634 143.489115,191.148634 Z" id="Shape" fill="#000000"></path>
            <path d="M212.268643,144.01933 L212.279395,144.01933 L223.756746,143.99766 C226.728586,143.991882 229.134156,141.559826 229.128422,138.563636 C229.122688,135.572504 226.714967,133.151282 223.746711,133.151282 L223.735959,133.151282 L212.258607,133.172952 C209.286768,133.17873 206.881197,135.610787 206.886932,138.606976 C206.892666,141.598831 209.301104,144.01933 212.268643,144.01933 Z" id="Shape" fill="#000000"></path>
        </g>
        <g id="working" transform="translate(80.000000, 500.000000)" fill-rule="nonzero">
            <path d="M165.789258,157.315703 L165.789258,272.262813 L24.3157031,272.262813 C14.5490625,272.262813 6.63140625,264.345977 6.63140625,254.578516 L6.63140625,157.315703 C6.63140625,128.015781 30.3835547,104.262813 59.6842969,104.262813 L112.737187,104.262813 C142.037109,104.262813 165.789258,128.015781 165.789258,157.315703 Z" id="Shape" fill="#68B2B1"></path>
            <path d="M86.2107422,272.262813 L24.3157031,272.262813 C14.5490625,272.262813 6.63140625,264.345977 6.63140625,254.578516 L6.63140625,157.315703 C6.63140625,128.015781 30.3835547,104.262813 59.6842969,104.262813 L86.2107422,104.262813 L86.2107422,272.262813 L86.2107422,272.262813 Z" id="Shape" fill="#88CAC9"></path>
            <path d="M413.368594,272.262812 L413.368594,369.525625 C413.368594,374.408945 409.409766,378.367773 404.526445,378.367773 L24.3157031,378.367773 C19.4323828,378.367773 15.4735547,374.408945 15.4735547,369.525625 L15.4735547,272.262812 C15.4735547,267.379492 19.4323828,263.420664 24.3157031,263.420664 L404.526445,263.420664 C409.409766,263.420664 413.368594,267.379492 413.368594,272.262812 Z" id="Shape" stroke="#000000" stroke-width="13" fill="#F3B972"></path>
            <path d="M121.579336,276.684297 L121.579336,276.684297 C121.579336,288.892187 111.682266,298.789258 99.474375,298.789258 L81.7892578,298.789258 C69.5813672,298.789258 59.6842969,288.892187 59.6842969,276.684297 L59.6842969,276.684297 C59.6842969,264.475586 69.5813672,254.579336 81.7892578,254.579336 L99.4735547,254.579336 C111.682266,254.578516 121.579336,264.475586 121.579336,276.684297 Z" id="Shape" fill="#E5E5E5"></path>
            <path d="M121.579336,42.3685937 C121.579336,61.901875 105.744023,77.7371875 86.2107422,77.7371875 C66.6774609,77.7371875 50.8421484,61.901875 50.8421484,42.3685938 C50.8421484,22.8353125 66.6774609,7 86.2107422,7 C105.744023,7 121.579336,22.8353125 121.579336,42.3685937 Z M86.2107422,236.895039 L42,236.895039 L42,183.842148 C42,178.958828 38.0411719,175 33.1578516,175 L6.63140625,175 L6.63140625,236.895039 L6.63140625,254.579336 C6.63140625,264.345977 14.5482422,272.263633 24.3157031,272.263633 L42,272.263633 L86.2107422,272.263633 C95.9773828,272.263633 103.895039,264.346797 103.895039,254.579336 L103.895039,254.579336 C103.895039,244.811875 95.9773828,236.895039 86.2107422,236.895039 Z" id="Shape" fill="#FFC627"></path>
            <path d="M86.2107422,7 L86.2107422,77.7371875 C66.6774609,77.7371875 50.8421484,61.901875 50.8421484,42.3685938 C50.8421484,22.8353125 66.6774609,7 86.2107422,7 Z" id="Shape" fill="#FF9933"></path>
            <path d="M386.842148,166.157852 L386.842148,325.315703 C386.842148,335.082344 378.925312,343 369.157852,343 L165.789258,343 C156.022617,343 148.104961,335.083164 148.104961,325.315703 L148.104961,166.157852 C148.104961,156.391211 156.021797,148.473555 165.789258,148.473555 L369.157852,148.473555 C378.924492,148.473555 386.842148,156.391211 386.842148,166.157852 Z" id="Shape" fill="#C1C1C1"></path>
            <path d="M386.842148,166.157852 L386.842148,325.315703 C386.842148,335.082344 378.925312,343 369.157852,343 L267.473555,343 L267.473555,148.473555 L369.157852,148.473555 C378.924492,148.473555 386.842148,156.391211 386.842148,166.157852 Z" id="Shape" fill="#DBDBDB"></path>
            <path d="M299.030156,271.631992 L302.842148,378.368594 L232.104961,378.368594 L235.916953,271.631992 C236.256562,262.117188 244.068398,254.579336 253.589766,254.579336 L281.356523,254.579336 C290.877891,254.578516 298.689727,262.117188 299.030156,271.631992 Z" id="Shape" fill="#F7F7F7"></path>
            <path d="M86.2107422,84.3685937 C109.368984,84.3685937 128.210742,65.5268359 128.210742,42.3685937 C128.210742,19.2103516 109.368984,0.36859375 86.2107422,0.36859375 C63.0525,0.36859375 44.2107422,19.2103516 44.2107422,42.3685937 C44.2107422,65.5268359 63.0525,84.3685937 86.2107422,84.3685937 Z M86.2107422,13.6314063 C102.055898,13.6314063 114.94793,26.5226172 114.94793,42.3685938 C114.94793,58.2145703 102.055898,71.1057813 86.2107422,71.1057813 C70.3655859,71.1057813 57.4735547,58.2145703 57.4735547,42.3685938 C57.4735547,26.5226172 70.3655859,13.6314063 86.2107422,13.6314063 Z M413.368594,256.789258 L393.473555,256.789258 L393.473555,166.157852 C393.473555,152.750664 382.565039,141.842148 369.157852,141.842148 L165.789258,141.842148 C152.38125,141.842148 141.473555,152.750664 141.473555,166.157852 L141.473555,256.789258 L120.227461,256.789258 C117.422812,253.860742 113.983242,251.512187 110.088398,249.96918 C107.928516,238.757148 98.0429297,230.262812 86.2099219,230.262812 L48.6314062,230.262812 L48.6314062,175 C48.6314062,171.336484 45.661875,168.368594 42,168.368594 C38.338125,168.368594 35.3685938,171.336484 35.3685938,175 L35.3685938,236.895039 C35.3685938,240.558555 38.338125,243.526445 42,243.526445 L86.2107422,243.526445 C92.3056641,243.526445 97.2636328,248.484414 97.2636328,254.579336 C97.2636328,260.674258 92.3056641,265.632227 86.2107422,265.632227 L24.3157031,265.632227 C18.2207812,265.632227 13.2628125,260.674258 13.2628125,254.579336 L13.2628125,157.315703 C13.2628125,131.719492 34.0864453,110.895039 59.6834766,110.895039 L112.736367,110.895039 C126.410977,110.895039 139.328438,116.886602 148.176328,127.333281 C150.54375,130.125625 154.728164,130.475898 157.522148,128.106836 C160.316953,125.739414 160.663945,121.55582 158.296523,118.761016 C146.923711,105.33332 130.317305,97.6322266 112.735547,97.6322266 L59.6842969,97.6322266 C26.7741797,97.6314062 0,124.405586 0,157.315703 L0,254.578516 C0,267.985703 10.9076953,278.894219 24.3157031,278.894219 L53.1365625,278.894219 C54.2694141,293.710703 66.6873047,305.420664 81.7892578,305.420664 L99.4735547,305.420664 C115.318711,305.420664 128.210742,292.529453 128.210742,276.683477 C128.210742,274.411211 127.945781,272.188984 127.440469,270.05207 L141.473555,270.05207 L141.473555,325.314883 C141.473555,338.72207 152.38125,349.630586 165.789258,349.630586 L226.495664,349.630586 L225.704883,371.735547 L196.736367,371.735547 C193.073672,371.735547 190.104961,374.703437 190.104961,378.366953 C190.104961,382.030469 193.074492,384.998359 196.736367,384.998359 L232.074609,384.998359 L232.141875,384.998359 L302.804414,384.998359 L302.837227,384.998359 L302.870859,384.998359 L338.209922,384.998359 C341.873438,384.998359 344.841328,382.030469 344.841328,378.366953 C344.841328,374.703437 341.873438,371.735547 338.209922,371.735547 L309.241406,371.735547 L308.450625,349.630586 L369.157852,349.630586 C382.565039,349.630586 393.473555,338.72207 393.473555,325.314883 L393.473555,270.05207 L413.368594,270.05207 C417.032109,270.05207 420,267.08418 420,263.420664 C420,259.757148 417.032109,256.789258 413.368594,256.789258 Z M99.4735547,292.157852 L81.7892578,292.157852 C74.0069531,292.157852 67.5494531,286.383672 66.4732031,278.895039 L86.2107422,278.895039 C96.2226562,278.895039 104.840039,272.811602 108.563437,264.149102 C112.484531,266.992305 114.947109,271.602461 114.947109,276.684297 C114.947109,285.215547 108.005625,292.157852 99.4735547,292.157852 Z M380.210742,325.315703 C380.210742,331.410625 375.252773,336.368594 369.157852,336.368594 L307.978125,336.368594 L305.657461,271.395742 C305.189063,258.247773 294.514336,247.947109 281.357344,247.947109 C277.693828,247.947109 274.725938,250.915 274.725938,254.578516 C274.725938,258.242031 277.693828,261.209922 281.357344,261.209922 C287.338242,261.209922 292.18957,265.891445 292.402852,271.868242 L295.96957,371.736367 L238.977539,371.736367 L242.544258,271.868242 C242.757539,265.892266 247.609688,261.209922 253.589766,261.209922 C257.253281,261.209922 260.221172,258.242031 260.221172,254.578516 C260.221172,250.915 257.253281,247.947109 253.589766,247.947109 C240.431953,247.947109 229.758867,258.246133 229.289648,271.395742 L226.967344,336.368594 L165.787617,336.368594 C159.692695,336.368594 154.734727,331.410625 154.734727,325.315703 L154.734727,166.157852 C154.734727,160.06293 159.692695,155.104961 165.787617,155.104961 L369.156211,155.104961 C375.251133,155.104961 380.209102,160.06293 380.209102,166.157852 L380.209102,325.315703 L380.210742,325.315703 Z" id="Shape" fill="#000000"></path>
        </g>
        <g id="freight-(1)" transform="translate(319.000000, 194.000000)" fill-rule="nonzero">
            <polyline id="Shape" fill="#75C0C7" points="7.32882731 448.124756 7.32882731 342.705158 28.4196707 312.947749 112.779542 312.947749 134.32302 342.705158 134.32302 448.124756"></polyline>
            <rect id="Rectangle-path" fill="#589095" x="14.3591084" y="342.708659" width="42.3191406" height="105.419598"></rect>
            <polygon id="Shape" fill="#E0DCCD" points="133.86951 342.705158 7.32882731 342.705158 28.4196707 314.593207 112.779542 314.593207"></polygon>
            <polygon id="Shape" fill="#A8A59A" points="56.5399197 342.705158 7.32882731 342.705158 20.2179679 314.593207 71.7719036 314.593207"></polygon>
            <polyline id="Shape" fill="#1E834E" points="112.396072 238.053148 169.041052 238.053148 169.041052 167.006119 133.86951 132.104027 112.396072 132.104027"></polyline>
            <polygon id="Shape" fill="#E0DCCD" points="134.32302 131.866836 134.32302 195.125072 169.041052 195.125072 169.041052 167.006119"></polygon>
            <rect id="Rectangle-path" fill="#4BAF78" x="147.928321" y="195.119821" width="21.0864659" height="42.1692398"></rect>
            <rect id="Rectangle-path" fill="#1E834E" x="49.5096386" y="293.506836" width="42.1816867" height="21.0802437"></rect>
            <path d="M112.396072,117.810423 C112.396072,94.5219396 94.1217189,75.6429337 70.8263614,75.6429337 C47.531004,75.6429337 29.2566506,94.5219396 29.2566506,117.810423 L29.2566506,293.767659 L112.396072,293.767659 L112.396072,117.810423 Z" id="Shape" fill="#75C0C7"></path>
            <rect id="Rectangle-path" fill="#E0DCCD" x="49.5096386" y="167.006994" width="42.1816867" height="63.2494834"></rect>
            <ellipse id="Oval" fill="#4BAF78" cx="70.5996064" cy="117.813924" rx="21.0864659" ry="21.0802437"></ellipse>
            <rect id="Rectangle-path" fill="#A8A59A" x="49.5096386" y="167.006994" width="21.0864659" height="63.2494834"></rect>
            <path d="M84.7223293,78.093616 C80.3185542,76.534807 75.9874458,75.6420585 71.048739,75.6420585 C47.7533815,75.6420585 29.2557751,94.5210643 29.2557751,117.809548 L29.2557751,293.766784 L56.664241,293.766784 L56.664241,117.810423 C56.6651165,99.4591891 68.3504418,83.8886043 84.7223293,78.093616 Z" id="Shape" fill="#589095"></path>
            <path d="M100.270369,91.4620877 L305.90653,7.69864327 C313.203839,5.043154 321.27159,8.80495127 323.927863,16.1001072 C326.584137,23.3952632 322.821229,31.4606335 315.52392,34.1161228 L109.887759,117.879567" id="Shape" fill="#4BAF78"></path>
            <rect id="Rectangle-path" fill="#75C0C7" x="197.364418" y="300.539419" width="238.456104" height="21.0802437"></rect>
            <polygon id="Shape" fill="#1E834E" points="126.840104 110.782216 112.779542 110.782216 105.750137 89.6984717 126.840104 82.6711404"></polygon>
            <rect id="Rectangle-path" fill="#589095" x="197.364418" y="300.539419" width="91.1704016" height="21.0802437"></rect>
            <rect id="Rectangle-path" fill="#FCBB3B" x="204.171446" y="321.619663" width="224.961992" height="112.443429"></rect>
            <rect id="Rectangle-path" fill="#BD8C2C" x="204.171446" y="321.619663" width="84.364249" height="112.443429"></rect>
            <path d="M435.983365,440.918875 L197.317141,440.918875 L197.317141,314.770881 L435.98249,314.770881 L435.98249,440.918875 L435.983365,440.918875 L435.983365,440.918875 Z M211.021373,427.218686 L422.279133,427.218686 L422.279133,328.471945 L211.021373,328.471945 L211.021373,427.218686 Z" id="Shape" fill="#000000"></path>
            <rect id="Rectangle-path" fill="#000000" x="253.096249" y="343.092891" width="13.7042329" height="71.2413333"></rect>
            <rect id="Rectangle-path" fill="#000000" x="225.686908" y="343.092891" width="13.7042329" height="71.2413333"></rect>
            <rect id="Rectangle-path" fill="#000000" x="281.417863" y="343.092891" width="13.7042329" height="71.2413333"></rect>
            <rect id="Rectangle-path" fill="#000000" x="309.740353" y="343.092891" width="13.7042329" height="71.2413333"></rect>
            <rect id="Rectangle-path" fill="#000000" x="338.062843" y="343.092891" width="13.7042329" height="71.2413333"></rect>
            <rect id="Rectangle-path" fill="#000000" x="365.472185" y="343.092891" width="13.7042329" height="71.2413333"></rect>
            <rect id="Rectangle-path" fill="#000000" x="393.793799" y="343.092891" width="13.7042329" height="71.2413333"></rect>
            <polygon id="Shape" fill="#000000" points="422.114538 294.681413 422.114538 286.461125 408.410305 286.461125 408.410305 294.681413 223.857984 294.681413 223.857984 286.461125 210.153751 286.461125 210.153751 294.681413 197.362667 294.681413 197.362667 308.381602 435.818771 308.381602 435.818771 294.681413"></polygon>
            <polygon id="Shape" fill="#000000" points="333.174916 188.732292 323.442835 188.732292 323.442835 174.118349 309.738602 174.118349 309.738602 188.732292 300.149229 188.732292 210.153751 262.145981 210.153751 279.153715 223.857984 279.153715 223.857984 268.649916 305.031904 202.432481 328.245839 202.432481 408.410305 268.623659 408.410305 279.153715 422.114538 279.153715 422.114538 262.171363"></polygon>
            <path d="M70.5996064,145.7447 C55.1925221,145.7447 42.6570843,133.213836 42.6570843,117.810423 C42.6570843,102.40701 55.1916466,89.8761462 70.5996064,89.8761462 C86.0075663,89.8761462 98.5421285,102.40701 98.5421285,117.810423 C98.5421285,133.213836 86.0066908,145.7447 70.5996064,145.7447 Z M70.5996064,103.577211 C62.7489799,103.577211 56.3613173,109.962113 56.3613173,117.811298 C56.3613173,125.660483 62.7481044,132.045386 70.5996064,132.045386 C78.4511084,132.045386 84.8378956,125.660483 84.8378956,117.811298 C84.8378956,109.962113 78.4502329,103.577211 70.5996064,103.577211 Z" id="Shape" fill="#000000"></path>
            <rect id="Rectangle-path" fill="#000000" x="309.740353" y="69.0864834" width="13.7042329" height="97.7288324"></rect>
            <path d="M98.5421285,237.107885 L42.6570843,237.107885 L42.6570843,160.155587 L98.541253,160.155587 C98.5421285,160.155587 98.5421285,237.107885 98.5421285,237.107885 Z M56.3613173,223.407696 L84.8370201,223.407696 L84.8370201,173.856651 L56.3613173,173.856651 L56.3613173,223.407696 Z" id="Shape" fill="#000000"></path>
            <rect id="Rectangle-path" fill="#000000" x="56.6668675" y="245.363183" width="29.2356386" height="13.7001891"></rect>
            <rect id="Rectangle-path" fill="#000000" x="56.6668675" y="265.457027" width="29.2356386" height="13.7001891"></rect>
            <rect id="Rectangle-path" fill="#000000" x="56.6668675" y="329.391827" width="29.2356386" height="13.7001891"></rect>
            <rect id="Rectangle-path" fill="#000000" x="56.6668675" y="351.312304" width="29.2356386" height="13.7001891"></rect>
            <rect id="Rectangle-path" fill="#000000" x="56.6668675" y="370.493269" width="29.2356386" height="13.7001891"></rect>
            <rect id="Rectangle-path" fill="#000000" x="56.6668675" y="392.413747" width="29.2356386" height="13.7001891"></rect>
            <rect id="Rectangle-path" fill="#000000" x="56.6668675" y="414.334224" width="29.2356386" height="13.7001891"></rect>
            <rect id="Rectangle-path" fill="#000000" x="56.6668675" y="434.428068" width="29.2356386" height="13.7001891"></rect>
            <rect id="Rectangle-path" fill="#FFFFFF" x="63.9755582" y="111.100805" width="14.618257" height="13.7001891"></rect>
            <path d="M330.366305,13.7570799 C326.422169,2.92506433 314.397149,-2.68087135 303.56106,1.26210136 L303.439365,1.30673879 L104.077928,82.5144717 C95.049751,73.6657583 83.1236627,68.7932768 70.3684739,68.7932768 C57.2823454,68.7932768 45.0612129,73.9099513 35.954241,83.1997875 C26.9208112,92.4134776 21.9462088,104.7054 21.9462088,117.811298 L21.9462088,301.075068 L41.1319598,301.075068 L41.1319598,306.554969 L24.9518072,306.554969 L0.0201365462,340.458407 L0.0201365462,448.124756 L13.7243695,448.124756 L13.7243695,350.395924 L48.4424016,350.395924 L48.4424016,336.695735 L19.7968514,336.695735 L31.8866586,320.255158 L109.267904,320.255158 L121.099438,336.695735 L91.3822731,336.695735 L91.3822731,350.395924 L127.013454,350.395924 L127.013454,448.124756 L140.717687,448.124756 L140.717687,340.497793 L116.291181,306.554969 L97.7778153,306.554969 L97.7778153,301.075068 L118.790739,301.075068 L118.790739,245.360558 L175.435719,245.360558 L175.435719,164.154575 L136.692129,125.711248 L118.790739,125.711248 L118.790739,121.649242 L309.738602,43.868963 L309.738602,61.7746979 L323.442835,61.7746979 L323.442835,37.4971891 C330.487124,32.0890585 333.561888,22.5331481 330.366305,13.7570799 Z M84.0735823,306.554969 L54.8379438,306.554969 L54.8379438,301.075068 L84.0735823,301.075068 L84.0735823,306.554969 Z M105.087382,287.374004 L35.6513173,287.374004 L35.6513173,117.810423 C35.6513173,98.0062846 50.9008112,82.4925906 70.3693494,82.4925906 C89.8378876,82.4925906 105.087382,98.0062846 105.087382,117.810423 L105.087382,287.374004 Z M140.718562,149.007608 L161.731486,169.858538 L161.731486,188.732292 L140.718562,188.732292 L140.718562,149.007608 Z M127.014329,139.410561 L127.014329,202.432481 L161.732361,202.432481 L161.732361,231.659493 L118.791614,231.659493 L118.791614,139.410561 L127.014329,139.410561 Z M117.684104,107.305749 C116.677277,102.558427 114.989309,98.0194133 112.667478,93.8103665 L308.352683,14.1001754 C312.058683,12.812692 316.141149,14.7443548 317.488546,18.4422593 C318.847325,22.1760487 316.915092,26.3203275 313.180201,27.6778304 L313.058506,27.7224678 L117.684104,107.305749 Z" id="Shape" fill="#000000"></path>
        </g>
    </g>
</svg>